<svg width="768" height="152" viewBox="0 0 768 152" fill="none" xmlns="http://www.w3.org/2000/svg">
<g filter="url(#filter0_d_1_48)">
<path d="M39.7778 42.032L54.5618 4.72H73.2498V7.28C71.8418 7.28 70.6898 7.42933 69.7938 7.728C68.9404 7.984 68.2791 8.47467 67.8098 9.2C67.3404 9.92533 67.0204 10.928 66.8498 12.208C66.7218 13.4453 66.6578 15.024 66.6578 16.944V41.776C66.6578 43.9093 66.7431 45.5947 66.9137 46.832C67.0844 48.0693 67.4258 49.0293 67.9378 49.712C68.4498 50.3947 69.1751 50.8427 70.1138 51.056C71.0951 51.2693 72.3751 51.3973 73.9538 51.44V54H49.8898V51.44C51.4684 51.3973 52.7271 51.2693 53.6658 51.056C54.6471 50.8 55.3938 50.352 55.9058 49.712C56.4604 49.072 56.8231 48.176 56.9938 47.024C57.1644 45.8293 57.2498 44.2293 57.2498 42.224V12.272H56.9298L39.7138 54.64H34.9778L17.1858 12.272H16.9298V41.776C16.9298 43.9093 17.0151 45.5947 17.1858 46.832C17.3564 48.0693 17.6978 49.0293 18.2098 49.712C18.7218 50.3947 19.4471 50.8427 20.3858 51.056C21.3671 51.2693 22.6471 51.3973 24.2258 51.44V54H4.51375V51.44C6.09242 51.3973 7.37242 51.2693 8.35375 51.056C9.33508 50.8 10.0818 50.352 10.5938 49.712C11.1484 49.072 11.5111 48.176 11.6818 47.024C11.8524 45.8293 11.9378 44.2293 11.9378 42.224V16.496C11.9378 14.704 11.8524 13.2107 11.6818 12.016C11.5111 10.8213 11.1911 9.88266 10.7218 9.2C10.2524 8.47467 9.56975 7.984 8.67375 7.728C7.82042 7.42933 6.66842 7.28 5.21775 7.28V4.72H24.6098L39.5218 42.032H39.7778ZM92.2917 43.504C92.2917 45.2107 92.3558 46.576 92.4838 47.6C92.6118 48.624 92.8678 49.4133 93.2518 49.968C93.6358 50.5227 94.1904 50.9067 94.9158 51.12C95.6411 51.2907 96.6224 51.3973 97.8598 51.44V54H77.6998V51.44C78.8944 51.3973 79.8544 51.2693 80.5798 51.056C81.3478 50.8 81.9238 50.416 82.3078 49.904C82.7344 49.3493 83.0118 48.6027 83.1398 47.664C83.3104 46.6827 83.3958 45.4453 83.3958 43.952V36.08C83.3958 33.6053 83.3531 31.5787 83.2678 30C83.1824 28.3787 83.0758 27.2693 82.9478 26.672C82.7344 25.6053 82.2438 24.9013 81.4758 24.56C80.7504 24.2187 79.4064 24.048 77.4438 24.048V21.872L92.2917 19.44V43.504ZM82.8838 5.872C82.8838 4.464 83.3531 3.29066 84.2917 2.352C85.2731 1.37066 86.4464 0.879997 87.8118 0.879997C89.2198 0.879997 90.3931 1.37066 91.3318 2.352C92.3131 3.29066 92.8038 4.464 92.8038 5.872C92.8038 7.23733 92.3131 8.41066 91.3318 9.392C90.3931 10.3307 89.2198 10.8 87.8118 10.8C86.4464 10.8 85.2731 10.3307 84.2917 9.392C83.3531 8.41066 82.8838 7.23733 82.8838 5.872ZM115.417 43.568C115.417 45.3173 115.459 46.704 115.545 47.728C115.673 48.7093 115.907 49.4773 116.249 50.032C116.633 50.544 117.187 50.8853 117.913 51.056C118.681 51.2267 119.705 51.3547 120.985 51.44V54H100.825V51.44C102.062 51.3547 103.043 51.2267 103.769 51.056C104.537 50.8853 105.113 50.544 105.497 50.032C105.923 49.52 106.201 48.7947 106.329 47.856C106.457 46.9173 106.521 45.6373 106.521 44.016V36.016C106.521 33.4987 106.478 31.472 106.393 29.936C106.307 28.3573 106.201 27.2907 106.073 26.736C105.945 26.1813 105.774 25.7333 105.561 25.392C105.347 25.008 105.027 24.7307 104.601 24.56C104.174 24.3467 103.641 24.2187 103.001 24.176C102.361 24.0907 101.55 24.048 100.569 24.048V21.872L112.921 19.44L113.753 25.072H114.009C115.417 23.28 117.081 21.8933 119.001 20.912C120.921 19.9307 123.033 19.44 125.337 19.44C128.067 19.44 130.265 19.824 131.929 20.592C133.635 21.3173 135.15 22.5547 136.473 24.304C137.198 25.2853 137.838 26.5653 138.393 28.144C138.947 29.68 139.225 31.8133 139.225 34.544V43.568C139.225 45.3173 139.267 46.704 139.353 47.728C139.481 48.7093 139.715 49.4773 140.057 50.032C140.441 50.544 140.995 50.8853 141.721 51.056C142.446 51.2267 143.427 51.3547 144.665 51.44V54H124.633V51.44C125.913 51.3973 126.915 51.2907 127.641 51.12C128.409 50.9067 128.985 50.544 129.369 50.032C129.753 49.52 130.009 48.7947 130.137 47.856C130.265 46.8747 130.329 45.5947 130.329 44.016V35.312C130.329 33.136 130.201 31.3013 129.945 29.808C129.689 28.3147 129.262 27.12 128.665 26.224C128.11 25.2853 127.363 24.624 126.425 24.24C125.486 23.8133 124.313 23.6 122.905 23.6C121.539 23.6 120.366 23.984 119.385 24.752C118.403 25.52 117.55 26.5867 116.825 27.952C116.441 28.72 116.099 29.7227 115.801 30.96C115.545 32.1547 115.417 33.4133 115.417 34.736V43.568ZM161.917 43.504C161.917 45.2107 161.981 46.576 162.109 47.6C162.237 48.624 162.493 49.4133 162.877 49.968C163.261 50.5227 163.815 50.9067 164.541 51.12C165.266 51.2907 166.247 51.3973 167.485 51.44V54H147.325V51.44C148.519 51.3973 149.479 51.2693 150.205 51.056C150.973 50.8 151.549 50.416 151.933 49.904C152.359 49.3493 152.637 48.6027 152.765 47.664C152.935 46.6827 153.021 45.4453 153.021 43.952V36.08C153.021 33.6053 152.978 31.5787 152.893 30C152.807 28.3787 152.701 27.2693 152.573 26.672C152.359 25.6053 151.869 24.9013 151.101 24.56C150.375 24.2187 149.031 24.048 147.069 24.048V21.872L161.917 19.44V43.504ZM152.509 5.872C152.509 4.464 152.978 3.29066 153.917 2.352C154.898 1.37066 156.071 0.879997 157.437 0.879997C158.845 0.879997 160.018 1.37066 160.957 2.352C161.938 3.29066 162.429 4.464 162.429 5.872C162.429 7.23733 161.938 8.41066 160.957 9.392C160.018 10.3307 158.845 10.8 157.437 10.8C156.071 10.8 154.898 10.3307 153.917 9.392C152.978 8.41066 152.509 7.23733 152.509 5.872ZM185.106 43.44C185.106 45.232 185.148 46.64 185.234 47.664C185.319 48.688 185.554 49.4773 185.938 50.032C186.322 50.544 186.876 50.8853 187.602 51.056C188.327 51.2267 189.33 51.3547 190.61 51.44V54H170.386V51.44C171.666 51.3547 172.69 51.2267 173.458 51.056C174.226 50.8853 174.802 50.544 175.186 50.032C175.57 49.52 175.826 48.7947 175.954 47.856C176.082 46.8747 176.146 45.5733 176.146 43.952V36.016C176.146 33.584 176.103 31.5573 176.018 29.936C175.975 28.3147 175.868 27.2053 175.698 26.608C175.57 26.0533 175.399 25.6267 175.186 25.328C175.015 24.9867 174.716 24.7307 174.29 24.56C173.906 24.3467 173.394 24.2187 172.754 24.176C172.114 24.0907 171.282 24.048 170.258 24.048V21.872L182.61 19.44L183.378 25.008H183.762C185.554 23.0027 187.346 21.5733 189.138 20.72C190.972 19.8667 193.084 19.44 195.474 19.44C198.29 19.44 200.615 19.9307 202.45 20.912C204.284 21.8933 205.671 23.3013 206.61 25.136H206.866C208.402 23.344 210.236 21.9573 212.37 20.976C214.503 19.952 216.786 19.44 219.218 19.44C221.778 19.44 223.996 19.76 225.874 20.4C227.794 21.04 229.287 21.9573 230.354 23.152C231.207 24.1333 231.826 25.4133 232.21 26.992C232.636 28.5707 232.85 30.768 232.85 33.584V43.44C232.85 45.1893 232.892 46.576 232.978 47.6C233.106 48.624 233.362 49.4133 233.746 49.968C234.13 50.5227 234.684 50.8853 235.41 51.056C236.135 51.2267 237.138 51.3547 238.418 51.44V54H218.194V51.44C219.474 51.3973 220.476 51.2907 221.202 51.12C221.97 50.9067 222.546 50.544 222.93 50.032C223.356 49.4773 223.612 48.7307 223.698 47.792C223.826 46.8533 223.89 45.5733 223.89 43.952V35.568C223.89 33.3493 223.762 31.472 223.506 29.936C223.25 28.4 222.844 27.1627 222.29 26.224C221.735 25.2853 220.988 24.624 220.05 24.24C219.154 23.8133 218.044 23.6 216.722 23.6C215.228 23.6 213.991 23.9627 213.01 24.688C212.071 25.4133 211.282 26.352 210.642 27.504C209.532 29.5093 208.978 32.0053 208.978 34.992V43.44C208.978 45.1893 209.02 46.576 209.106 47.6C209.191 48.624 209.426 49.4133 209.81 49.968C210.194 50.5227 210.748 50.8853 211.474 51.056C212.242 51.2267 213.287 51.3547 214.61 51.44V54H194.322V51.44C195.602 51.3547 196.604 51.2267 197.33 51.056C198.098 50.8853 198.674 50.544 199.058 50.032C199.484 49.52 199.74 48.7947 199.826 47.856C199.954 46.8747 200.018 45.5733 200.018 43.952V35.568C200.018 33.3493 199.89 31.472 199.634 29.936C199.378 28.4 198.951 27.1627 198.354 26.224C197.799 25.2853 197.052 24.624 196.114 24.24C195.175 23.8133 194.002 23.6 192.594 23.6C191.186 23.6 190.012 23.9413 189.074 24.624C188.178 25.3067 187.431 26.224 186.834 27.376C186.279 28.4 185.852 29.5733 185.554 30.896C185.255 32.2187 185.106 33.584 185.106 34.992V43.44ZM261.422 35.76C257.838 37.3813 255.129 38.896 253.294 40.304C251.502 41.6693 250.606 43.0987 250.606 44.592C250.606 45.8293 250.948 46.8107 251.63 47.536C252.313 48.2613 253.166 48.624 254.19 48.624C255.214 48.624 256.174 48.4533 257.07 48.112C257.966 47.728 258.734 47.2373 259.374 46.64C260.014 46.0427 260.505 45.3387 260.846 44.528C261.23 43.6747 261.422 42.7787 261.422 41.84V35.76ZM261.422 32.368V29.68C261.422 27.2053 260.974 25.4133 260.078 24.304C259.225 23.152 257.881 22.576 256.046 22.576C254.809 22.576 253.87 22.9173 253.23 23.6C252.59 24.24 251.993 25.328 251.438 26.864C251.054 27.9307 250.5 28.7627 249.774 29.36C249.092 29.9573 248.132 30.256 246.894 30.256C245.7 30.256 244.782 29.8933 244.142 29.168C243.502 28.4427 243.182 27.4187 243.182 26.096C243.182 24.048 244.292 22.4267 246.51 21.232C248.772 20.0373 252.164 19.44 256.686 19.44C261.465 19.44 264.878 20.3147 266.926 22.064C268.974 23.7707 269.998 26.6507 269.998 30.704V44.72C269.998 48.3467 270.724 50.16 272.174 50.16C272.985 50.16 273.732 49.8827 274.414 49.328L275.374 51.184C274.777 52.2507 273.838 53.104 272.558 53.744C271.321 54.3413 269.913 54.64 268.334 54.64C266.372 54.64 264.878 54.0427 263.854 52.848C262.83 51.6533 262.318 49.968 262.318 47.792H261.998C260.761 50.0107 259.161 51.696 257.198 52.848C255.236 54 252.996 54.576 250.478 54.576C247.79 54.576 245.636 53.8293 244.014 52.336C242.393 50.8 241.582 48.816 241.582 46.384C241.582 44.5067 242.414 42.7573 244.078 41.136C245.742 39.472 248.516 37.8507 252.398 36.272L261.422 32.368ZM291.964 43.504C291.964 45.2107 292.028 46.576 292.156 47.6C292.284 48.624 292.54 49.4133 292.924 49.968C293.308 50.5227 293.863 50.9067 294.588 51.12C295.314 51.2907 296.295 51.3973 297.532 51.44V54H277.372V51.44C278.567 51.3973 279.527 51.2693 280.252 51.056C281.02 50.8 281.596 50.416 281.98 49.904C282.407 49.3493 282.684 48.6027 282.812 47.664C282.983 46.6827 283.068 45.4453 283.068 43.952V17.52C283.068 15.0453 283.026 13.0187 282.94 11.44C282.855 9.81867 282.748 8.70933 282.62 8.112C282.407 7.04533 281.916 6.34133 281.148 6C280.423 5.65866 279.079 5.488 277.116 5.488V3.312L291.964 0.879997V43.504ZM315.354 43.504C315.354 45.2107 315.418 46.576 315.546 47.6C315.674 48.624 315.93 49.4133 316.314 49.968C316.698 50.5227 317.253 50.9067 317.978 51.12C318.704 51.2907 319.685 51.3973 320.922 51.44V54H300.762V51.44C301.957 51.3973 302.917 51.2693 303.642 51.056C304.41 50.8 304.986 50.416 305.37 49.904C305.797 49.3493 306.074 48.6027 306.202 47.664C306.373 46.6827 306.458 45.4453 306.458 43.952V36.08C306.458 33.6053 306.416 31.5787 306.33 30C306.245 28.3787 306.138 27.2693 306.01 26.672C305.797 25.6053 305.306 24.9013 304.538 24.56C303.813 24.2187 302.469 24.048 300.506 24.048V21.872L315.354 19.44V43.504ZM305.946 5.872C305.946 4.464 306.416 3.29066 307.354 2.352C308.336 1.37066 309.509 0.879997 310.874 0.879997C312.282 0.879997 313.456 1.37066 314.394 2.352C315.376 3.29066 315.866 4.464 315.866 5.872C315.866 7.23733 315.376 8.41066 314.394 9.392C313.456 10.3307 312.282 10.8 310.874 10.8C309.509 10.8 308.336 10.3307 307.354 9.392C306.416 8.41066 305.946 7.23733 305.946 5.872ZM327.471 54H325.487V42.352H328.175C328.901 45.424 329.946 47.664 331.311 49.072C332.677 50.48 334.447 51.184 336.623 51.184C338.202 51.184 339.418 50.864 340.271 50.224C341.167 49.5413 341.615 48.624 341.615 47.472C341.615 46.2773 341.082 45.1253 340.015 44.016C338.949 42.864 337.221 41.648 334.831 40.368C331.589 38.6187 329.263 36.8907 327.855 35.184C326.447 33.4347 325.743 31.472 325.743 29.296C325.743 27.888 325.999 26.5867 326.511 25.392C327.066 24.1547 327.791 23.088 328.687 22.192C329.626 21.296 330.735 20.6133 332.015 20.144C333.295 19.632 334.682 19.376 336.175 19.376C337.498 19.376 338.799 19.568 340.079 19.952C341.402 20.336 342.554 20.8693 343.535 21.552L344.687 20.016H346.351V29.68H343.855C342.874 27.248 341.85 25.4987 340.783 24.432C339.759 23.3653 338.501 22.832 337.007 22.832C335.813 22.832 334.853 23.152 334.127 23.792C333.445 24.432 333.103 25.2853 333.103 26.352C333.103 27.5467 333.615 28.6773 334.639 29.744C335.706 30.8107 337.455 31.984 339.887 33.264C341.594 34.2027 343.066 35.12 344.303 36.016C345.541 36.912 346.543 37.8293 347.311 38.768C348.079 39.664 348.634 40.624 348.975 41.648C349.359 42.6293 349.551 43.696 349.551 44.848C349.551 46.3413 349.274 47.6853 348.719 48.88C348.165 50.0747 347.375 51.0987 346.351 51.952C345.327 52.8053 344.09 53.4667 342.639 53.936C341.231 54.4053 339.653 54.64 337.903 54.64C336.069 54.64 334.362 54.4053 332.783 53.936C331.205 53.424 329.903 52.6987 328.879 51.76L327.471 54ZM353.444 23.6V20.72C356.004 19.9947 358.137 18.9067 359.844 17.456C361.593 15.9627 362.894 14.256 363.748 12.336H367.012V20.08H374.372V23.6H367.012V43.248C367.012 45.8933 367.289 47.7707 367.844 48.88C368.441 49.9893 369.422 50.544 370.788 50.544C372.452 50.544 373.71 49.776 374.564 48.24L375.908 50.096C374.713 53.1253 371.897 54.64 367.46 54.64C364.516 54.64 362.212 53.9573 360.548 52.592C358.926 51.2267 358.116 49.3067 358.116 46.832V23.6H353.444ZM392.729 43.504C392.729 45.2107 392.793 46.576 392.921 47.6C393.049 48.624 393.305 49.4133 393.689 49.968C394.073 50.5227 394.628 50.9067 395.353 51.12C396.079 51.2907 397.06 51.3973 398.297 51.44V54H378.137V51.44C379.332 51.3973 380.292 51.2693 381.017 51.056C381.785 50.8 382.361 50.416 382.745 49.904C383.172 49.3493 383.449 48.6027 383.577 47.664C383.748 46.6827 383.833 45.4453 383.833 43.952V36.08C383.833 33.6053 383.791 31.5787 383.705 30C383.62 28.3787 383.513 27.2693 383.385 26.672C383.172 25.6053 382.681 24.9013 381.913 24.56C381.188 24.2187 379.844 24.048 377.881 24.048V21.872L392.729 19.44V43.504ZM383.321 5.872C383.321 4.464 383.791 3.29066 384.729 2.352C385.711 1.37066 386.884 0.879997 388.249 0.879997C389.657 0.879997 390.831 1.37066 391.769 2.352C392.751 3.29066 393.241 4.464 393.241 5.872C393.241 7.23733 392.751 8.41066 391.769 9.392C390.831 10.3307 389.657 10.8 388.249 10.8C386.884 10.8 385.711 10.3307 384.729 9.392C383.791 8.41066 383.321 7.23733 383.321 5.872ZM433.198 48.688C431.577 50.48 429.55 51.8667 427.118 52.848C424.729 53.8293 422.126 54.32 419.31 54.32C416.708 54.32 414.34 53.9147 412.206 53.104C410.073 52.2507 408.238 51.0773 406.702 49.584C405.166 48.0907 403.972 46.2987 403.118 44.208C402.308 42.0747 401.902 39.728 401.902 37.168C401.902 34.5227 402.35 32.112 403.246 29.936C404.142 27.76 405.401 25.904 407.022 24.368C408.644 22.7893 410.585 21.5733 412.846 20.72C415.108 19.8667 417.604 19.44 420.334 19.44C422.254 19.44 424.025 19.632 425.646 20.016C427.31 20.4 428.718 20.9333 429.87 21.616C431.065 22.2987 432.004 23.1093 432.686 24.048C433.369 24.944 433.71 25.9253 433.71 26.992C433.71 28.2293 433.348 29.2107 432.622 29.936C431.94 30.6613 431.001 31.024 429.806 31.024C428.825 31.024 427.95 30.768 427.182 30.256C426.457 29.744 425.732 28.912 425.006 27.76C424.366 26.736 423.812 25.9253 423.342 25.328C422.916 24.7307 422.51 24.2827 422.126 23.984C421.742 23.6427 421.358 23.4293 420.974 23.344C420.59 23.216 420.121 23.152 419.566 23.152C417.092 23.152 415.172 24.304 413.806 26.608C412.441 28.912 411.758 32.1333 411.758 36.272C411.758 40.7093 412.569 44.1227 414.19 46.512C415.854 48.9013 418.222 50.096 421.294 50.096C423.044 50.096 424.793 49.776 426.542 49.136C428.292 48.4533 429.956 47.4933 431.534 46.256L433.198 48.688ZM437.451 61.232C439.755 59.696 441.441 58.3093 442.507 57.072C443.617 55.8347 444.171 54.64 444.171 53.488C443.958 53.616 443.659 53.744 443.275 53.872C442.934 53.9573 442.593 54 442.251 54C441.355 54 440.587 53.5947 439.947 52.784C439.307 51.9733 438.987 51.0133 438.987 49.904C438.987 48.496 439.435 47.3227 440.331 46.384C441.27 45.4453 442.422 44.976 443.787 44.976C445.281 44.976 446.475 45.5093 447.371 46.576C448.267 47.6427 448.715 49.0933 448.715 50.928C448.715 53.232 447.947 55.4293 446.411 57.52C444.875 59.6533 442.507 61.7867 439.307 63.92L437.451 61.232ZM485.793 43.44C485.793 45.232 485.836 46.64 485.921 47.664C486.007 48.688 486.241 49.4773 486.625 50.032C487.009 50.544 487.564 50.8853 488.289 51.056C489.015 51.2267 490.017 51.3547 491.297 51.44V54H471.073V51.44C472.353 51.3547 473.377 51.2267 474.145 51.056C474.913 50.8853 475.489 50.544 475.873 50.032C476.257 49.52 476.513 48.7947 476.641 47.856C476.769 46.8747 476.833 45.5733 476.833 43.952V36.016C476.833 33.584 476.791 31.5573 476.705 29.936C476.663 28.3147 476.556 27.2053 476.385 26.608C476.257 26.0533 476.087 25.6267 475.873 25.328C475.703 24.9867 475.404 24.7307 474.977 24.56C474.593 24.3467 474.081 24.2187 473.441 24.176C472.801 24.0907 471.969 24.048 470.945 24.048V21.872L483.297 19.44L484.065 25.008H484.449C486.241 23.0027 488.033 21.5733 489.825 20.72C491.66 19.8667 493.772 19.44 496.161 19.44C498.977 19.44 501.303 19.9307 503.137 20.912C504.972 21.8933 506.359 23.3013 507.297 25.136H507.553C509.089 23.344 510.924 21.9573 513.057 20.976C515.191 19.952 517.473 19.44 519.905 19.44C522.465 19.44 524.684 19.76 526.561 20.4C528.481 21.04 529.975 21.9573 531.041 23.152C531.895 24.1333 532.513 25.4133 532.897 26.992C533.324 28.5707 533.537 30.768 533.537 33.584V43.44C533.537 45.1893 533.58 46.576 533.665 47.6C533.793 48.624 534.049 49.4133 534.433 49.968C534.817 50.5227 535.372 50.8853 536.097 51.056C536.823 51.2267 537.825 51.3547 539.105 51.44V54H518.881V51.44C520.161 51.3973 521.164 51.2907 521.889 51.12C522.657 50.9067 523.233 50.544 523.617 50.032C524.044 49.4773 524.3 48.7307 524.385 47.792C524.513 46.8533 524.577 45.5733 524.577 43.952V35.568C524.577 33.3493 524.449 31.472 524.193 29.936C523.937 28.4 523.532 27.1627 522.977 26.224C522.423 25.2853 521.676 24.624 520.737 24.24C519.841 23.8133 518.732 23.6 517.409 23.6C515.916 23.6 514.679 23.9627 513.697 24.688C512.759 25.4133 511.969 26.352 511.329 27.504C510.22 29.5093 509.665 32.0053 509.665 34.992V43.44C509.665 45.1893 509.708 46.576 509.793 47.6C509.879 48.624 510.113 49.4133 510.497 49.968C510.881 50.5227 511.436 50.8853 512.161 51.056C512.929 51.2267 513.975 51.3547 515.297 51.44V54H495.009V51.44C496.289 51.3547 497.292 51.2267 498.017 51.056C498.785 50.8853 499.361 50.544 499.745 50.032C500.172 49.52 500.428 48.7947 500.513 47.856C500.641 46.8747 500.705 45.5733 500.705 43.952V35.568C500.705 33.3493 500.577 31.472 500.321 29.936C500.065 28.4 499.639 27.1627 499.041 26.224C498.487 25.2853 497.74 24.624 496.801 24.24C495.863 23.8133 494.689 23.6 493.281 23.6C491.873 23.6 490.7 23.9413 489.761 24.624C488.865 25.3067 488.119 26.224 487.521 27.376C486.967 28.4 486.54 29.5733 486.241 30.896C485.943 32.2187 485.793 33.584 485.793 34.992V43.44ZM561.086 19.44C563.646 19.44 566.056 19.888 568.318 20.784C570.622 21.6373 572.627 22.832 574.334 24.368C576.083 25.904 577.448 27.7387 578.43 29.872C579.454 31.9627 579.966 34.2667 579.966 36.784C579.966 39.3867 579.454 41.776 578.43 43.952C577.448 46.128 576.083 48.0053 574.334 49.584C572.627 51.1627 570.622 52.4 568.318 53.296C566.056 54.192 563.646 54.64 561.086 54.64C558.568 54.64 556.179 54.2133 553.918 53.36C551.656 52.464 549.672 51.2267 547.966 49.648C546.259 48.0693 544.915 46.192 543.934 44.016C542.952 41.7973 542.462 39.3867 542.462 36.784C542.462 34.2667 542.952 31.9413 543.934 29.808C544.915 27.6747 546.259 25.84 547.966 24.304C549.672 22.768 551.656 21.5733 553.918 20.72C556.179 19.8667 558.568 19.44 561.086 19.44ZM561.086 23.152C559.806 23.152 558.632 23.4933 557.566 24.176C556.499 24.816 555.582 25.7333 554.814 26.928C554.088 28.1227 553.512 29.5733 553.086 31.28C552.702 32.944 552.51 34.8 552.51 36.848C552.51 38.9813 552.702 40.9013 553.086 42.608C553.512 44.3147 554.088 45.7653 554.814 46.96C555.582 48.1547 556.478 49.0933 557.502 49.776C558.568 50.416 559.763 50.736 561.086 50.736C562.408 50.736 563.603 50.416 564.67 49.776C565.779 49.0933 566.718 48.1547 567.486 46.96C568.254 45.7227 568.851 44.2507 569.278 42.544C569.704 40.8373 569.918 38.9387 569.918 36.848C569.918 34.8 569.704 32.944 569.278 31.28C568.851 29.616 568.254 28.1867 567.486 26.992C566.718 25.7547 565.779 24.816 564.67 24.176C563.603 23.4933 562.408 23.152 561.086 23.152ZM613.128 49.904H612.872C609.928 53.0613 606.109 54.64 601.416 54.64C598.984 54.64 596.744 54.2133 594.696 53.36C592.69 52.5067 590.941 51.312 589.448 49.776C587.997 48.24 586.866 46.4267 586.056 44.336C585.245 42.2027 584.84 39.856 584.84 37.296C584.84 34.736 585.245 32.368 586.056 30.192C586.909 28.016 588.04 26.1387 589.448 24.56C590.898 22.9387 592.605 21.68 594.568 20.784C596.573 19.888 598.728 19.44 601.032 19.44C603.165 19.44 605.042 19.76 606.664 20.4C608.328 21.04 609.778 22.128 611.016 23.664H611.272V18.224C611.272 15.7067 611.229 13.552 611.144 11.76C611.101 9.92533 611.016 8.73067 610.888 8.176C610.674 7.28 610.013 6.64 608.904 6.256C607.837 5.82933 606.173 5.616 603.912 5.616V3.44L620.104 0.879997V37.488C620.104 40.688 620.125 43.1627 620.168 44.912C620.253 46.6187 620.381 47.92 620.552 48.816C620.637 49.3707 620.765 49.8187 620.936 50.16C621.106 50.5013 621.362 50.7787 621.704 50.992C622.045 51.1627 622.493 51.2907 623.048 51.376C623.645 51.4187 624.392 51.44 625.288 51.44V53.936L613.128 54.64V49.904ZM611.144 35.632C611.144 34.0107 610.973 32.5173 610.632 31.152C610.29 29.744 609.778 28.5067 609.096 27.44C608.328 26.2027 607.346 25.264 606.152 24.624C604.957 23.984 603.677 23.664 602.312 23.664C599.794 23.664 597.874 24.816 596.552 27.12C595.229 29.424 594.568 32.7733 594.568 37.168C594.568 41.6053 595.229 45.0187 596.552 47.408C597.874 49.7973 599.773 50.992 602.248 50.992C603.656 50.992 605 50.6293 606.28 49.904C607.56 49.1787 608.605 48.1973 609.416 46.96C610.013 46.0213 610.44 44.8693 610.696 43.504C610.994 42.096 611.144 40.304 611.144 38.128V35.632ZM656.541 30.576C656.541 28.8693 656.499 27.5253 656.413 26.544C656.328 25.52 656.093 24.752 655.709 24.24C655.325 23.6853 654.749 23.3227 653.981 23.152C653.256 22.9387 652.253 22.768 650.973 22.64V20.08H665.437V39.472C665.437 42.0747 665.459 44.1227 665.501 45.616C665.587 47.0667 665.715 48.1547 665.885 48.88C666.013 49.4347 666.163 49.8827 666.333 50.224C666.504 50.5227 666.781 50.7787 667.165 50.992C667.549 51.1627 668.061 51.2907 668.701 51.376C669.384 51.4187 670.259 51.44 671.325 51.44V53.936L658.589 54.704L657.885 49.008H657.629C656.52 50.8 654.963 52.1867 652.957 53.168C650.952 54.1493 648.712 54.64 646.237 54.64C641.672 54.64 638.195 53.0187 635.805 49.776C633.971 47.3013 633.053 43.7813 633.053 39.216V30.576C633.053 28.8267 633.011 27.4613 632.925 26.48C632.84 25.456 632.605 24.688 632.221 24.176C631.88 23.664 631.347 23.3227 630.621 23.152C629.896 22.9387 628.893 22.768 627.613 22.64V20.08H641.949V38.192C641.949 42.5013 642.483 45.6373 643.549 47.6C644.616 49.52 646.323 50.48 648.669 50.48C651.187 50.48 653.128 49.328 654.493 47.024C655.859 44.8053 656.541 41.5413 656.541 37.232V30.576ZM687.964 43.504C687.964 45.2107 688.028 46.576 688.156 47.6C688.284 48.624 688.54 49.4133 688.924 49.968C689.308 50.5227 689.863 50.9067 690.588 51.12C691.314 51.2907 692.295 51.3973 693.532 51.44V54H673.372V51.44C674.567 51.3973 675.527 51.2693 676.252 51.056C677.02 50.8 677.596 50.416 677.98 49.904C678.407 49.3493 678.684 48.6027 678.812 47.664C678.983 46.6827 679.068 45.4453 679.068 43.952V17.52C679.068 15.0453 679.026 13.0187 678.94 11.44C678.855 9.81867 678.748 8.70933 678.62 8.112C678.407 7.04533 677.916 6.34133 677.148 6C676.423 5.65866 675.079 5.488 673.116 5.488V3.312L687.964 0.879997V43.504ZM716.922 35.76C713.338 37.3813 710.629 38.896 708.794 40.304C707.002 41.6693 706.106 43.0987 706.106 44.592C706.106 45.8293 706.448 46.8107 707.13 47.536C707.813 48.2613 708.666 48.624 709.69 48.624C710.714 48.624 711.674 48.4533 712.57 48.112C713.466 47.728 714.234 47.2373 714.874 46.64C715.514 46.0427 716.005 45.3387 716.346 44.528C716.73 43.6747 716.922 42.7787 716.922 41.84V35.76ZM716.922 32.368V29.68C716.922 27.2053 716.474 25.4133 715.578 24.304C714.725 23.152 713.381 22.576 711.546 22.576C710.309 22.576 709.37 22.9173 708.73 23.6C708.09 24.24 707.493 25.328 706.938 26.864C706.554 27.9307 706 28.7627 705.274 29.36C704.592 29.9573 703.632 30.256 702.394 30.256C701.2 30.256 700.282 29.8933 699.642 29.168C699.002 28.4427 698.682 27.4187 698.682 26.096C698.682 24.048 699.792 22.4267 702.01 21.232C704.272 20.0373 707.664 19.44 712.186 19.44C716.965 19.44 720.378 20.3147 722.426 22.064C724.474 23.7707 725.498 26.6507 725.498 30.704V44.72C725.498 48.3467 726.224 50.16 727.674 50.16C728.485 50.16 729.232 49.8827 729.914 49.328L730.874 51.184C730.277 52.2507 729.338 53.104 728.058 53.744C726.821 54.3413 725.413 54.64 723.834 54.64C721.872 54.64 720.378 54.0427 719.354 52.848C718.33 51.6533 717.818 49.968 717.818 47.792H717.498C716.261 50.0107 714.661 51.696 712.698 52.848C710.736 54 708.496 54.576 705.978 54.576C703.29 54.576 701.136 53.8293 699.514 52.336C697.893 50.8 697.082 48.816 697.082 46.384C697.082 44.5067 697.914 42.7573 699.578 41.136C701.242 39.472 704.016 37.8507 707.898 36.272L716.922 32.368ZM748.168 44.08C748.168 45.744 748.232 47.0667 748.36 48.048C748.531 48.9867 748.851 49.712 749.32 50.224C749.79 50.736 750.472 51.0773 751.368 51.248C752.264 51.376 753.459 51.44 754.952 51.44V54H733.576V51.44C734.856 51.3547 735.88 51.2267 736.648 51.056C737.416 50.8853 737.992 50.544 738.376 50.032C738.76 49.52 738.995 48.7947 739.08 47.856C739.208 46.8747 739.272 45.5733 739.272 43.952V36.144C739.272 33.4987 739.208 31.3867 739.08 29.808C738.952 28.2293 738.675 27.0133 738.248 26.16C737.822 25.3067 737.203 24.752 736.392 24.496C735.624 24.1973 734.6 24.048 733.32 24.048V21.808L746.12 19.44L747.144 26.8H747.4C748.552 24.5387 750.067 22.7467 751.944 21.424C753.822 20.1013 755.806 19.44 757.896 19.44C759.518 19.44 760.84 19.8453 761.864 20.656C762.888 21.4667 763.4 22.4907 763.4 23.728C763.4 25.0933 762.995 26.2453 762.184 27.184C761.416 28.1227 760.35 28.592 758.984 28.592C758.344 28.592 757.768 28.464 757.256 28.208C756.744 27.952 756.275 27.6747 755.848 27.376C755.464 27.0347 755.059 26.736 754.632 26.48C754.248 26.1813 753.843 26.032 753.416 26.032C752.606 26.032 751.838 26.5653 751.112 27.632C750.387 28.6987 749.79 30.128 749.32 31.92C748.979 33.2 748.702 34.6507 748.488 36.272C748.275 37.8507 748.168 39.4293 748.168 41.008V44.08ZM125.424 115.584L134.064 90.88C135.088 88.0213 135.6 85.888 135.6 84.48C135.6 83.1573 135.131 82.304 134.192 81.92C133.296 81.4933 131.888 81.28 129.968 81.28V78.72H148.144V81.28C146.523 81.28 145.051 81.6853 143.728 82.496C142.448 83.264 141.467 84.5867 140.784 86.464L125.36 128.64H119.664L108.528 94.848L95.8563 128.64H90.5443L76.9763 91.264C76.1656 89.088 75.4189 87.3387 74.7363 86.016C74.0536 84.6933 73.3283 83.6907 72.5603 83.008C71.7923 82.3253 70.9603 81.8773 70.0643 81.664C69.1683 81.4507 68.1016 81.344 66.8642 81.344V78.72H91.0563V81.344C88.8803 81.344 87.3869 81.5573 86.5763 81.984C85.7656 82.368 85.3603 83.0293 85.3603 83.968C85.3603 84.3093 85.3816 84.6507 85.4243 84.992C85.4669 85.2907 85.5523 85.6533 85.6803 86.08C85.8083 86.464 85.9576 86.9547 86.1283 87.552C86.3416 88.1493 86.6189 88.896 86.9603 89.792L95.9203 115.584L106.288 87.296C105.862 86.144 105.435 85.2053 105.008 84.48C104.582 83.7547 104.07 83.1787 103.472 82.752C102.918 82.3253 102.278 82.0267 101.552 81.856C100.827 81.6427 99.9523 81.472 98.9283 81.344V78.72H121.52V81.344C119.728 81.344 118.406 81.5787 117.552 82.048C116.699 82.4747 116.272 83.328 116.272 84.608C116.272 85.248 116.358 85.9947 116.528 86.848C116.742 87.7013 117.019 88.6827 117.36 89.792L125.424 115.584ZM176.841 122.048C172.959 126.443 168.116 128.64 162.313 128.64C159.668 128.64 157.257 128.235 155.081 127.424C152.948 126.571 151.113 125.397 149.577 123.904C148.041 122.368 146.847 120.555 145.993 118.464C145.14 116.373 144.713 114.048 144.713 111.488C144.713 108.843 145.161 106.432 146.057 104.256C146.953 102.037 148.212 100.139 149.833 98.56C151.497 96.9387 153.439 95.68 155.657 94.784C157.919 93.888 160.393 93.44 163.081 93.44C167.604 93.44 171.124 94.656 173.641 97.088C176.159 99.52 177.417 102.933 177.417 107.328C177.417 108.011 177.311 108.437 177.097 108.608C176.884 108.736 176.287 108.8 175.305 108.8H154.697C154.527 109.184 154.441 109.888 154.441 110.912C154.441 115.093 155.337 118.4 157.129 120.832C158.964 123.264 161.439 124.48 164.553 124.48C166.345 124.48 168.116 124.075 169.865 123.264C171.657 122.453 173.385 121.301 175.049 119.808L176.841 122.048ZM164.425 105.216C166.132 105.216 167.22 105.131 167.689 104.96C168.201 104.747 168.457 104.277 168.457 103.552C168.457 101.675 167.924 100.139 166.857 98.944C165.791 97.7493 164.447 97.152 162.825 97.152C160.991 97.152 159.348 97.92 157.897 99.456C156.489 100.949 155.572 102.869 155.145 105.216H164.425ZM194.119 113.984C194.119 115.563 194.332 117.035 194.759 118.4C195.228 119.723 195.847 120.875 196.615 121.856C197.383 122.837 198.3 123.605 199.367 124.16C200.433 124.715 201.607 124.992 202.887 124.992C205.447 124.992 207.388 123.819 208.711 121.472C210.033 119.125 210.695 115.669 210.695 111.104C210.695 106.667 210.033 103.296 208.711 100.992C207.431 98.6453 205.489 97.472 202.887 97.472C201.351 97.472 199.921 97.8987 198.599 98.752C197.319 99.5627 196.316 100.715 195.591 102.208C194.609 104.256 194.119 106.837 194.119 109.952V113.984ZM193.991 98.496H194.247C195.356 96.8747 196.785 95.6373 198.535 94.784C200.284 93.888 202.268 93.44 204.487 93.44C206.748 93.44 208.839 93.9093 210.759 94.848C212.721 95.744 214.407 96.9813 215.815 98.56C217.265 100.139 218.396 101.995 219.207 104.128C220.017 106.261 220.423 108.544 220.423 110.976C220.423 113.536 219.975 115.904 219.079 118.08C218.225 120.213 217.031 122.069 215.495 123.648C214.001 125.227 212.231 126.464 210.183 127.36C208.177 128.256 206.044 128.704 203.783 128.704C201.436 128.704 199.217 128.256 197.127 127.36C195.079 126.421 193.436 125.205 192.199 123.712L187.335 128H185.159V89.92C185.159 85.9093 184.881 83.1573 184.327 81.664C184.199 81.3653 184.049 81.1093 183.879 80.896C183.708 80.6827 183.452 80.512 183.111 80.384C182.812 80.2133 182.385 80.0853 181.831 80C181.276 79.872 180.551 79.744 179.655 79.616V77.44L193.991 74.88V98.496ZM261.18 117.696C261.18 119.317 261.244 120.619 261.372 121.6C261.5 122.581 261.756 123.349 262.14 123.904C262.566 124.459 263.142 124.843 263.868 125.056C264.593 125.269 265.553 125.397 266.748 125.44V128H247.868V125.44C248.806 125.397 249.553 125.269 250.108 125.056C250.705 124.843 251.153 124.48 251.452 123.968C251.793 123.413 252.006 122.688 252.092 121.792C252.22 120.853 252.284 119.637 252.284 118.144V82.048C251.217 80.9387 250.065 80.0853 248.828 79.488C247.633 78.8907 246.481 78.592 245.372 78.592C243.11 78.592 241.489 79.8933 240.508 82.496C240.166 83.4773 239.91 84.5867 239.74 85.824C239.569 87.0187 239.484 88.448 239.484 90.112V95.104H246.844V98.752H239.484V117.376C239.484 118.955 239.548 120.256 239.676 121.28C239.846 122.304 240.124 123.136 240.508 123.776C240.934 124.373 241.489 124.8 242.172 125.056C242.897 125.269 243.793 125.397 244.86 125.44V128H225.852V125.44C226.876 125.397 227.708 125.269 228.348 125.056C228.988 124.843 229.457 124.48 229.756 123.968C230.097 123.456 230.31 122.731 230.396 121.792C230.524 120.811 230.588 119.509 230.588 117.888V98.752H223.996V95.104H230.588V90.496C230.588 85.5893 232.017 81.7707 234.876 79.04C237.734 76.2667 241.702 74.88 246.78 74.88C248.529 74.88 250.257 75.0507 251.964 75.392C253.67 75.6907 254.972 76.0747 255.868 76.544L261.18 74.88V117.696ZM289.086 93.44C291.646 93.44 294.056 93.888 296.318 94.784C298.622 95.6373 300.627 96.832 302.334 98.368C304.083 99.904 305.448 101.739 306.43 103.872C307.454 105.963 307.966 108.267 307.966 110.784C307.966 113.387 307.454 115.776 306.43 117.952C305.448 120.128 304.083 122.005 302.334 123.584C300.627 125.163 298.622 126.4 296.318 127.296C294.056 128.192 291.646 128.64 289.086 128.64C286.568 128.64 284.179 128.213 281.918 127.36C279.656 126.464 277.672 125.227 275.966 123.648C274.259 122.069 272.915 120.192 271.934 118.016C270.952 115.797 270.462 113.387 270.462 110.784C270.462 108.267 270.952 105.941 271.934 103.808C272.915 101.675 274.259 99.84 275.966 98.304C277.672 96.768 279.656 95.5733 281.918 94.72C284.179 93.8667 286.568 93.44 289.086 93.44ZM289.086 97.152C287.806 97.152 286.632 97.4933 285.566 98.176C284.499 98.816 283.582 99.7333 282.814 100.928C282.088 102.123 281.512 103.573 281.086 105.28C280.702 106.944 280.51 108.8 280.51 110.848C280.51 112.981 280.702 114.901 281.086 116.608C281.512 118.315 282.088 119.765 282.814 120.96C283.582 122.155 284.478 123.093 285.502 123.776C286.568 124.416 287.763 124.736 289.086 124.736C290.408 124.736 291.603 124.416 292.67 123.776C293.779 123.093 294.718 122.155 295.486 120.96C296.254 119.723 296.851 118.251 297.278 116.544C297.704 114.837 297.918 112.939 297.918 110.848C297.918 108.8 297.704 106.944 297.278 105.28C296.851 103.616 296.254 102.187 295.486 100.992C294.718 99.7547 293.779 98.816 292.67 98.176C291.603 97.4933 290.408 97.152 289.086 97.152ZM328.938 128.64H324.138L315.37 102.336C314.688 100.288 313.898 98.8587 313.002 98.048C312.106 97.1947 310.912 96.7253 309.418 96.64V94.08H327.722V96.64C326.186 96.6827 325.12 96.9173 324.522 97.344C323.925 97.728 323.626 98.4107 323.626 99.392C323.626 99.8613 323.69 100.373 323.818 100.928C323.946 101.483 324.117 102.123 324.33 102.848L328.362 117.824H328.618L337.578 94.08H342.826L349.546 117.824H349.866L354.986 104.576C355.413 103.509 355.712 102.592 355.882 101.824C356.053 101.013 356.138 100.309 356.138 99.712C356.138 98.6027 355.776 97.8133 355.05 97.344C354.325 96.8747 353.344 96.64 352.106 96.64V94.08H365.866V96.64C365.098 96.64 364.458 96.7253 363.946 96.896C363.434 97.0667 362.922 97.472 362.41 98.112C361.898 98.752 361.344 99.7333 360.746 101.056C360.149 102.379 359.402 104.192 358.506 106.496L349.674 128.64H344.618L337.834 105.92H337.578L328.938 128.64ZM382.631 97.6V94.72C385.191 93.9947 387.325 92.9067 389.031 91.456C390.781 89.9627 392.082 88.256 392.935 86.336H396.199V94.08H403.559V97.6H396.199V117.248C396.199 119.893 396.477 121.771 397.031 122.88C397.629 123.989 398.61 124.544 399.975 124.544C401.639 124.544 402.898 123.776 403.751 122.24L405.095 124.096C403.901 127.125 401.085 128.64 396.647 128.64C393.703 128.64 391.399 127.957 389.735 126.592C388.114 125.227 387.303 123.307 387.303 120.832V97.6H382.631ZM440.029 122.048C436.146 126.443 431.303 128.64 425.501 128.64C422.855 128.64 420.445 128.235 418.269 127.424C416.135 126.571 414.301 125.397 412.765 123.904C411.229 122.368 410.034 120.555 409.181 118.464C408.327 116.373 407.901 114.048 407.901 111.488C407.901 108.843 408.349 106.432 409.245 104.256C410.141 102.037 411.399 100.139 413.021 98.56C414.685 96.9387 416.626 95.68 418.845 94.784C421.106 93.888 423.581 93.44 426.269 93.44C430.791 93.44 434.311 94.656 436.829 97.088C439.346 99.52 440.605 102.933 440.605 107.328C440.605 108.011 440.498 108.437 440.285 108.608C440.071 108.736 439.474 108.8 438.493 108.8H417.885C417.714 109.184 417.629 109.888 417.629 110.912C417.629 115.093 418.525 118.4 420.317 120.832C422.151 123.264 424.626 124.48 427.741 124.48C429.533 124.48 431.303 124.075 433.053 123.264C434.845 122.453 436.573 121.301 438.237 119.808L440.029 122.048ZM427.613 105.216C429.319 105.216 430.407 105.131 430.877 104.96C431.389 104.747 431.645 104.277 431.645 103.552C431.645 101.675 431.111 100.139 430.045 98.944C428.978 97.7493 427.634 97.152 426.013 97.152C424.178 97.152 422.535 97.92 421.085 99.456C419.677 100.949 418.759 102.869 418.333 105.216H427.613ZM459.418 117.44C459.418 119.232 459.461 120.64 459.546 121.664C459.632 122.688 459.866 123.477 460.25 124.032C460.634 124.544 461.189 124.885 461.914 125.056C462.64 125.227 463.642 125.355 464.922 125.44V128H444.698V125.44C445.978 125.355 447.002 125.227 447.77 125.056C448.538 124.885 449.114 124.544 449.498 124.032C449.882 123.52 450.138 122.795 450.266 121.856C450.394 120.875 450.458 119.573 450.458 117.952V110.016C450.458 107.584 450.416 105.557 450.33 103.936C450.288 102.315 450.181 101.205 450.01 100.608C449.882 100.053 449.712 99.6267 449.498 99.328C449.328 98.9867 449.029 98.7307 448.602 98.56C448.218 98.3467 447.706 98.2187 447.066 98.176C446.426 98.0907 445.594 98.048 444.57 98.048V95.872L456.922 93.44L457.69 99.008H458.074C459.866 97.0027 461.658 95.5733 463.45 94.72C465.285 93.8667 467.397 93.44 469.786 93.44C472.602 93.44 474.928 93.9307 476.762 94.912C478.597 95.8933 479.984 97.3013 480.922 99.136H481.178C482.714 97.344 484.549 95.9573 486.682 94.976C488.816 93.952 491.098 93.44 493.53 93.44C496.09 93.44 498.309 93.76 500.186 94.4C502.106 95.04 503.6 95.9573 504.666 97.152C505.52 98.1333 506.138 99.4133 506.522 100.992C506.949 102.571 507.162 104.768 507.162 107.584V117.44C507.162 119.189 507.205 120.576 507.29 121.6C507.418 122.624 507.674 123.413 508.058 123.968C508.442 124.523 508.997 124.885 509.722 125.056C510.448 125.227 511.45 125.355 512.73 125.44V128H492.506V125.44C493.786 125.397 494.789 125.291 495.514 125.12C496.282 124.907 496.858 124.544 497.242 124.032C497.669 123.477 497.925 122.731 498.01 121.792C498.138 120.853 498.202 119.573 498.202 117.952V109.568C498.202 107.349 498.074 105.472 497.818 103.936C497.562 102.4 497.157 101.163 496.602 100.224C496.048 99.2853 495.301 98.624 494.362 98.24C493.466 97.8133 492.357 97.6 491.034 97.6C489.541 97.6 488.304 97.9627 487.322 98.688C486.384 99.4133 485.594 100.352 484.954 101.504C483.845 103.509 483.29 106.005 483.29 108.992V117.44C483.29 119.189 483.333 120.576 483.418 121.6C483.504 122.624 483.738 123.413 484.122 123.968C484.506 124.523 485.061 124.885 485.786 125.056C486.554 125.227 487.6 125.355 488.922 125.44V128H468.634V125.44C469.914 125.355 470.917 125.227 471.642 125.056C472.41 124.885 472.986 124.544 473.37 124.032C473.797 123.52 474.053 122.795 474.138 121.856C474.266 120.875 474.33 119.573 474.33 117.952V109.568C474.33 107.349 474.202 105.472 473.946 103.936C473.69 102.4 473.264 101.163 472.666 100.224C472.112 99.2853 471.365 98.624 470.426 98.24C469.488 97.8133 468.314 97.6 466.906 97.6C465.498 97.6 464.325 97.9413 463.386 98.624C462.49 99.3067 461.744 100.224 461.146 101.376C460.592 102.4 460.165 103.573 459.866 104.896C459.568 106.219 459.418 107.584 459.418 108.992V117.44ZM527.671 98.24H527.927C530.743 95.04 534.412 93.44 538.935 93.44C541.409 93.44 543.671 93.888 545.719 94.784C547.809 95.6373 549.601 96.8533 551.095 98.432C552.631 99.968 553.804 101.824 554.615 104C555.468 106.133 555.895 108.48 555.895 111.04C555.895 113.6 555.468 115.947 554.615 118.08C553.804 120.213 552.652 122.069 551.159 123.648C549.665 125.227 547.873 126.464 545.783 127.36C543.735 128.213 541.495 128.64 539.063 128.64C534.924 128.64 531.767 127.232 529.591 124.416H529.335V133.312C529.335 135.019 529.42 136.384 529.591 137.408C529.761 138.432 530.124 139.221 530.679 139.776C531.233 140.331 532.001 140.715 532.983 140.928C534.007 141.141 535.351 141.269 537.015 141.312V144H514.935V141.312C516.087 141.269 517.025 141.141 517.751 140.928C518.476 140.715 519.031 140.331 519.415 139.776C519.841 139.221 520.119 138.453 520.247 137.472C520.417 136.533 520.503 135.296 520.503 133.76V109.952C520.503 107.989 520.46 106.133 520.375 104.384C520.289 102.592 520.183 101.333 520.055 100.608C519.841 99.6267 519.351 98.944 518.583 98.56C517.857 98.176 516.599 97.984 514.807 97.984V95.488L527.671 93.696V98.24ZM538.551 97.088C537.185 97.088 535.884 97.3867 534.647 97.984C533.409 98.5813 532.428 99.3707 531.703 100.352C530.977 101.333 530.423 102.571 530.039 104.064C529.655 105.515 529.463 107.093 529.463 108.8V113.152C529.463 116.181 530.209 118.763 531.703 120.896C533.324 123.243 535.607 124.416 538.551 124.416C541.153 124.416 543.073 123.349 544.311 121.216C545.591 119.04 546.231 115.691 546.231 111.168C546.231 101.781 543.671 97.088 538.551 97.088ZM574.152 117.504C574.152 119.211 574.216 120.576 574.344 121.6C574.472 122.624 574.728 123.413 575.112 123.968C575.496 124.523 576.05 124.907 576.776 125.12C577.501 125.291 578.482 125.397 579.72 125.44V128H559.56V125.44C560.754 125.397 561.714 125.269 562.44 125.056C563.208 124.8 563.784 124.416 564.168 123.904C564.594 123.349 564.872 122.603 565 121.664C565.17 120.683 565.256 119.445 565.256 117.952V91.52C565.256 89.0453 565.213 87.0187 565.128 85.44C565.042 83.8187 564.936 82.7093 564.808 82.112C564.594 81.0453 564.104 80.3413 563.336 80C562.61 79.6587 561.266 79.488 559.304 79.488V77.312L574.152 74.88V117.504ZM603.11 109.76C599.526 111.381 596.816 112.896 594.982 114.304C593.19 115.669 592.294 117.099 592.294 118.592C592.294 119.829 592.635 120.811 593.318 121.536C594 122.261 594.854 122.624 595.878 122.624C596.902 122.624 597.862 122.453 598.758 122.112C599.654 121.728 600.422 121.237 601.062 120.64C601.702 120.043 602.192 119.339 602.534 118.528C602.918 117.675 603.11 116.779 603.11 115.84V109.76ZM603.11 106.368V103.68C603.11 101.205 602.662 99.4133 601.766 98.304C600.912 97.152 599.568 96.576 597.734 96.576C596.496 96.576 595.558 96.9173 594.918 97.6C594.278 98.24 593.68 99.328 593.126 100.864C592.742 101.931 592.187 102.763 591.462 103.36C590.779 103.957 589.819 104.256 588.582 104.256C587.387 104.256 586.47 103.893 585.83 103.168C585.19 102.443 584.87 101.419 584.87 100.096C584.87 98.048 585.979 96.4267 588.198 95.232C590.459 94.0373 593.851 93.44 598.374 93.44C603.152 93.44 606.566 94.3147 608.614 96.064C610.662 97.7707 611.686 100.651 611.686 104.704V118.72C611.686 122.347 612.411 124.16 613.862 124.16C614.672 124.16 615.419 123.883 616.102 123.328L617.062 125.184C616.464 126.251 615.526 127.104 614.246 127.744C613.008 128.341 611.6 128.64 610.022 128.64C608.059 128.64 606.566 128.043 605.542 126.848C604.518 125.653 604.006 123.968 604.006 121.792H603.686C602.448 124.011 600.848 125.696 598.886 126.848C596.923 128 594.683 128.576 592.166 128.576C589.478 128.576 587.323 127.829 585.702 126.336C584.08 124.8 583.27 122.816 583.27 120.384C583.27 118.507 584.102 116.757 585.766 115.136C587.43 113.472 590.203 111.851 594.086 110.272L603.11 106.368ZM619.444 97.6V94.72C622.004 93.9947 624.137 92.9067 625.844 91.456C627.593 89.9627 628.894 88.256 629.748 86.336H633.012V94.08H640.372V97.6H633.012V117.248C633.012 119.893 633.289 121.771 633.844 122.88C634.441 123.989 635.422 124.544 636.788 124.544C638.452 124.544 639.71 123.776 640.564 122.24L641.908 124.096C640.713 127.125 637.897 128.64 633.46 128.64C630.516 128.64 628.212 127.957 626.548 126.592C624.926 125.227 624.116 123.307 624.116 120.832V97.6H619.444ZM676.841 122.048C672.959 126.443 668.116 128.64 662.313 128.64C659.668 128.64 657.257 128.235 655.081 127.424C652.948 126.571 651.113 125.397 649.577 123.904C648.041 122.368 646.847 120.555 645.993 118.464C645.14 116.373 644.713 114.048 644.713 111.488C644.713 108.843 645.161 106.432 646.057 104.256C646.953 102.037 648.212 100.139 649.833 98.56C651.497 96.9387 653.439 95.68 655.657 94.784C657.919 93.888 660.393 93.44 663.081 93.44C667.604 93.44 671.124 94.656 673.641 97.088C676.159 99.52 677.417 102.933 677.417 107.328C677.417 108.011 677.311 108.437 677.097 108.608C676.884 108.736 676.287 108.8 675.305 108.8H654.697C654.527 109.184 654.441 109.888 654.441 110.912C654.441 115.093 655.337 118.4 657.129 120.832C658.964 123.264 661.439 124.48 664.553 124.48C666.345 124.48 668.116 124.075 669.865 123.264C671.657 122.453 673.385 121.301 675.049 119.808L676.841 122.048ZM664.425 105.216C666.132 105.216 667.22 105.131 667.689 104.96C668.201 104.747 668.457 104.277 668.457 103.552C668.457 101.675 667.924 100.139 666.857 98.944C665.791 97.7493 664.447 97.152 662.825 97.152C660.991 97.152 659.348 97.92 657.897 99.456C656.489 100.949 655.572 102.869 655.145 105.216H664.425ZM683.175 123.904C683.175 122.539 683.623 121.387 684.519 120.448C685.457 119.467 686.609 118.976 687.975 118.976C689.383 118.976 690.556 119.467 691.495 120.448C692.433 121.387 692.903 122.539 692.903 123.904C692.903 125.227 692.433 126.357 691.495 127.296C690.556 128.192 689.383 128.64 687.975 128.64C686.609 128.64 685.457 128.192 684.519 127.296C683.623 126.357 683.175 125.227 683.175 123.904Z" fill="#333333"/>
</g>
<defs>
<filter id="filter0_d_1_48" x="0.513763" y="0.880005" width="766.886" height="151.12" filterUnits="userSpaceOnUse" color-interpolation-filters="sRGB">
<feFlood flood-opacity="0" result="BackgroundImageFix"/>
<feColorMatrix in="SourceAlpha" type="matrix" values="0 0 0 0 0 0 0 0 0 0 0 0 0 0 0 0 0 0 127 0" result="hardAlpha"/>
<feOffset dy="4"/>
<feGaussianBlur stdDeviation="2"/>
<feComposite in2="hardAlpha" operator="out"/>
<feColorMatrix type="matrix" values="0 0 0 0 0 0 0 0 0 0 0 0 0 0 0 0 0 0 0.25 0"/>
<feBlend mode="normal" in2="BackgroundImageFix" result="effect1_dropShadow_1_48"/>
<feBlend mode="normal" in="SourceGraphic" in2="effect1_dropShadow_1_48" result="shape"/>
</filter>
</defs>
</svg>
